<svg xmlns:xlink="http://www.w3.org/1999/xlink" xmlns:dc="http://purl.org/dc/elements/1.1/" xmlns:cc="http://creativecommons.org/ns#" xmlns:rdf="http://www.w3.org/1999/02/22-rdf-syntax-ns#" xmlns:svg="http://www.w3.org/2000/svg" xmlns="http://www.w3.org/2000/svg" xmlns:sodipodi="http://sodipodi.sourceforge.net/DTD/sodipodi-0.dtd" xmlns:inkscape="http://www.inkscape.org/namespaces/inkscape" width="135" height="135" id="svg2" version="1.1" inkscape:version="0.48.4 r" sodipodi:docname="Wikimedia-logo-meta.svg">
  <defs id="defs4"/>
  <sodipodi:namedview id="base" pagecolor="#ffffff" bordercolor="#666666" borderopacity="1.0" inkscape:pageopacity="0.0" inkscape:pageshadow="2" inkscape:zoom="2.8" inkscape:cx="19.642857" inkscape:cy="91.428571" inkscape:document-units="px" inkscape:current-layer="layer2" showgrid="false" inkscape:window-width="1440" inkscape:window-height="852" inkscape:window-x="0" inkscape:window-y="0" inkscape:window-maximized="1"/>
  <metadata id="metadata7">
    <rdf:RDF>
      <cc:Work rdf:about="">
        <dc:format>image/svg+xml</dc:format>
        <dc:type rdf:resource="http://purl.org/dc/dcmitype/StillImage"/>
        <dc:title/>
      </cc:Work>
    </rdf:RDF>
  </metadata>
  <g inkscape:groupmode="layer" id="layer2" inkscape:label="Lớp" style="display:inline">
    <g id="layer1-9" transform="matrix(0.18888889,0,0,0.18946782,19.197569,1.6409859)">
      <path id="path2862" style="fill:#339966;fill-opacity:1;stroke:none" d="m 189.02218,124.20633 c -16.3304,8.09048 -30.57072,18.83695 -42.45488,31.46214 5.92032,0.11402 11.87495,-0.15125 17.83372,-0.82096 6.87881,-11.08411 15.11968,-21.38978 24.62116,-30.64118 z m 14.07647,-6.10602 c 12.68251,-0.59819 25.28713,0.26578 37.56531,2.57621 4.23676,-3.79707 8.19259,-7.85763 11.88358,-12.10373 -16.5216,0.33719 -33.2097,3.42995 -49.44889,9.52752 z m -7.78932,13.76814 c -6.55245,6.44451 -12.44555,13.43148 -17.6638,20.84464 7.91731,-1.69232 15.79062,-4.13204 23.53354,-7.31288 l -5.86974,-13.53176 z m 9.18651,-3.95082 5.80756,13.38842 c 7.12707,-3.54421 13.80696,-7.66514 20.0364,-12.23388 -8.50952,-1.10729 -17.15649,-1.51308 -25.84396,-1.15454 z m 60.74466,-19.05996 c -3.93435,5.07695 -8.2124,9.93007 -12.8251,14.48782 22.62028,6.01894 43.78624,16.89581 61.85896,31.9605 6.70509,-8.11431 12.76818,-16.68785 18.17623,-25.63142 -20.35134,-12.09119 -43.42072,-19.27492 -67.21009,-20.8169 z m -127.00601,56.42052 c -14.78999,18.66628 -24.9088,40.57334 -29.58847,63.79355 10.37139,2.00447 20.91868,3.26618 31.55478,3.7187 1.05468,-23.5649 7.35535,-46.58083 18.19417,-67.36682 -6.74894,0.41991 -13.48995,0.36062 -20.16048,-0.14543 z m 105.33235,-33.90462 c -8.80467,7.37809 -18.59315,13.79933 -29.29639,19.07789 l 26.79936,61.78167 c 25.98007,-12.3156 48.40421,-29.26606 66.6927,-49.40172 -18.58431,-15.48911 -40.66898,-26.25238 -64.19567,-31.45784 z m -73.24889,32.79544 c -12.09321,20.92643 -19.09563,44.54126 -20.19027,68.81176 27.3319,-0.11344 55.07874,-5.48208 81.80536,-16.68214 l -26.77448,-61.72434 c -11.42431,4.70961 -23.1141,7.89024 -34.84061,9.59472 z m 170.54367,-29.08207 c -5.68156,9.37538 -12.06862,18.35247 -19.11054,26.85421 15.1412,14.32776 27.68129,31.85405 36.47789,52.13323 1.81768,4.19038 3.44959,8.41311 4.88114,12.66619 10.11048,-10.40526 19.39563,-21.46672 27.80682,-33.11308 C 379.2474,169.28369 361.765,149.46657 340.86162,135.08694 z M 106.99044,238.91887 c -3.34675,25.11244 -0.3715,51.36097 9.86727,76.38189 14.25912,1.56584 28.68821,2.13055 43.17446,1.60783 -2.48069,-4.4772 -4.76587,-9.1023 -6.84382,-13.89269 -8.51114,-19.62109 -12.74097,-40.03937 -13.1119,-60.22501 -11.15016,-0.4643 -22.21125,-1.77808 -33.08601,-3.87202 z m 208.20769,-69.46853 c -19.22248,21.20651 -42.80761,39.04238 -70.14884,51.95687 l 29.49794,68.00285 c 30.48693,-14.09962 57.49488,-32.7181 80.58787,-54.74783 -1.67826,-5.58665 -3.70224,-11.12634 -6.08021,-16.60837 -8.191,-18.88305 -19.82339,-35.21948 -33.85676,-48.60352 z m -165.20724,73.50221 c 0.41202,18.79619 4.4109,37.81039 12.34287,56.0963 2.60891,6.01443 5.57106,11.76391 8.84458,17.24867 31.64462,-2.33747 63.42782,-9.78658 94.23213,-22.82197 L 235.91252,225.4727 c -28.05328,11.77296 -57.20752,17.3983 -85.92163,17.47985 z m 245.49002,-38.80354 c -8.85408,11.78762 -18.57436,22.99183 -29.14288,33.48824 6.90621,26.69724 6.52551,54.07119 -0.12614,79.72895 13.00286,-9.40814 25.28762,-19.55929 36.78459,-30.39911 5.22993,-26.94209 3.11055,-55.56407 -7.51557,-82.81808 z M 121.61857,325.805 c 13.06712,26.1028 32.90969,46.85605 56.42658,61.05668 15.47975,-1.23991 30.97047,-3.46298 46.41244,-6.71159 -23.29401,-12.40432 -43.6108,-30.55372 -58.57238,-53.51759 -14.83682,0.79731 -29.63008,0.50235 -44.26664,-0.8275 z m 236.37555,-80.15419 c -23.01552,21.19186 -49.62274,39.19149 -79.45496,52.96199 l 24.16294,55.70385 c 17.782,-8.12287 34.63392,-17.43475 50.47622,-27.89048 0.005,-0.014 0.0114,-0.0271 0.0162,-0.0411 8.79973,-25.52487 10.78351,-53.40698 4.79957,-80.73426 z m -180.64359,80.16405 c 16.01654,22.70692 37.77617,40.00548 62.38877,50.77211 18.11523,-4.62172 36.08838,-10.69604 53.81359,-18.23349 l -24.16294,-55.70385 c -30.08711,12.74143 -61.10178,20.33502 -92.03942,23.16523 z m 221.12299,-21.31887 c -11.68332,10.1607 -24.05393,19.68108 -37.11315,28.46377 -8.29409,22.40332 -21.57394,42.99243 -39.06747,60.0026 37.5453,-18.56243 64.12844,-51.07179 76.18062,-88.46637 z M 193.97837,395.2447 c 35.06002,15.816 76.05227,18.17719 114.43874,3.73663 -23.9467,1.13994 -47.61521,-3.0477 -69.3296,-11.96075 -14.98252,3.68502 -30.04367,6.40829 -45.10914,8.22412 z m 152.63485,-52.85635 c -12.73292,7.73573 -26.04632,14.80175 -39.9192,21.13105 l 9.40154,21.67375 c 12.7108,-12.50874 22.98106,-27.03202 30.51766,-42.8048 z m -90.86513,40.16442 c 16.39214,5.06958 33.69922,7.37275 51.18583,6.64854 l -9.40154,-21.67376 c -13.79655,5.86969 -27.73494,10.88556 -41.78429,15.02522 z" inkscape:connector-curvature="0"/>
      <path id="path4005" style="fill:#990000;fill-opacity:1;stroke:none" d="m 255.71875,33.5625 c -76.77913,0 -144.61008,38.523618 -185.21875,97.28125 l 43.5,25.125 c 31.8111,-43.85371 83.43839,-72.40625 141.71875,-72.40625 58.28036,2e-6 109.90765,28.55254 141.71875,72.40625 l 43.5,-25.125 C 400.32883,72.086118 332.49788,33.5625 255.71875,33.5625 z" inkscape:connector-curvature="0"/>
      <path id="path4003" style="fill:#006699;fill-opacity:1;stroke:none" d="m 46.8125,174.9375 c -10.369554,25.85832 -16.09375,54.07504 -16.09375,83.625 0,115.75182 87.54875,211.17856 200,223.625 l 0,-50.4375 c -84.76463,-12.14845 -150,-85.07981 -150,-173.1875 10e-7,-20.44578 3.515303,-40.06814 9.96875,-58.3125 l -43.875,-25.3125 z" inkscape:connector-curvature="0"/>
      <path id="path3918" style="fill:#006699;fill-opacity:1;stroke:none" d="M 464.625,174.9375 420.75,200.25 c 6.45345,18.24436 9.96875,37.86672 9.96875,58.3125 0,88.10768 -65.23536,161.03905 -150,173.1875 l 0,50.4375 c 112.45124,-12.44644 199.99999,-107.87318 200,-223.625 0,-29.54996 -5.7242,-57.76668 -16.09375,-83.625 z" inkscape:connector-curvature="0"/>
    </g>
    <g style="font-size:4px;font-style:normal;font-variant:normal;font-weight:bold;font-stretch:normal;text-align:center;line-height:125%;letter-spacing:0px;word-spacing:0px;text-anchor:middle;fill:#484848;fill-opacity:1;stroke:none;font-family:Hoefler Text;-inkscape-font-specification:Hoefler Text Bold" id="text3140">
      <path d="m 19.282227,103.81445 -4.21875,8.89649 -1.464844,0 -5.9960939,-13.818362 3.6035159,0 3.21289,7.539062 3.50586,-7.539062 2.734375,0 3.505859,7.539062 3.193359,-7.539062 3.603516,0 -5.976562,13.818362 -1.464844,0 -4.238281,-8.89649" style="font-size:20px;writing-mode:lr-tb;fill:#484848;font-family:Gill Sans MT;-inkscape-font-specification:Gill Sans MT Bold" id="path4159"/>
      <path d="m 36.020508,98.892578 0,13.642582 -3.398438,0 0,-13.642582 3.398438,0" style="font-size:20px;writing-mode:lr-tb;fill:#484848;font-family:Gill Sans MT;-inkscape-font-specification:Gill Sans MT Bold" id="path4161"/>
      <path d="m 50.639648,98.892578 -4.443359,6.406252 6.025391,7.23633 -4.257813,0 -5.40039,-6.39649 0,6.39649 -3.398438,0 0,-13.642582 3.398438,0 0,6.142582 4.335937,-6.142582 3.740234,0" style="font-size:20px;writing-mode:lr-tb;fill:#484848;font-family:Gill Sans MT;-inkscape-font-specification:Gill Sans MT Bold" id="path4163"/>
      <path d="m 57.075195,98.892578 0,13.642582 -3.398437,0 0,-13.642582 3.398437,0" style="font-size:20px;writing-mode:lr-tb;fill:#484848;font-family:Gill Sans MT;-inkscape-font-specification:Gill Sans MT Bold" id="path4165"/>
      <path d="m 67.573242,103.95117 4.384766,-5.058592 2.958984,0 0,13.642582 -3.398437,0 0,-8.51563 -3.681641,4.27735 -0.517578,0 -3.681641,-4.27735 0,8.51563 -3.398437,0 0,-13.642582 2.958984,0 4.375,5.058592" style="font-size:20px;writing-mode:lr-tb;fill:#484848;font-family:Gill Sans MT;-inkscape-font-specification:Gill Sans MT Bold" id="path4167"/>
      <path d="m 88.032227,110.03516 0,2.5 -10.058594,0 0,-13.642582 9.921875,0 0,2.500002 -6.523438,0 0,2.86133 6.220703,0 0,2.5 -6.220703,0 0,3.28125 6.660157,0" style="font-size:20px;writing-mode:lr-tb;fill:#484848;font-family:Gill Sans MT;-inkscape-font-specification:Gill Sans MT Bold" id="path4169"/>
      <path d="m 90.610352,98.892578 6.015625,0 c 2.324208,1.4e-5 4.160143,0.638034 5.507813,1.914062 1.35415,1.26954 2.03123,2.91342 2.03125,4.93164 -2e-5,2.11589 -0.68686,3.7793 -2.06055,4.99024 -1.3672,1.20442 -3.32032,1.80664 -5.859373,1.80664 l -5.634765,0 0,-13.642582 m 3.398437,2.500002 0,8.64258 2.216797,0 c 1.438793,0 2.539053,-0.39388 3.300781,-1.18164 0.761703,-0.79427 1.142563,-1.83919 1.142583,-3.13477 -2e-5,-1.34114 -0.38739,-2.39582 -1.162114,-3.16406 -0.768239,-0.77473 -1.875009,-1.1621 -3.320313,-1.16211 l -2.177734,0" style="font-size:20px;writing-mode:lr-tb;fill:#484848;font-family:Gill Sans MT;-inkscape-font-specification:Gill Sans MT Bold" id="path4171"/>
      <path d="m 110.2002,98.892578 0,13.642582 -3.39844,0 0,-13.642582 3.39844,0" style="font-size:20px;writing-mode:lr-tb;fill:#484848;font-family:Gill Sans MT;-inkscape-font-specification:Gill Sans MT Bold" id="path4173"/>
      <path d="m 121.34277,98.892578 6.05469,13.642582 -3.65234,0 -1.12305,-2.69532 -6.10352,0 -1.01562,2.69532 -3.60352,0 5.49805,-13.642582 3.94531,0 m 0.27344,8.564452 -2.19726,-5.30273 -2.00196,5.30273 4.19922,0" style="font-size:20px;writing-mode:lr-tb;fill:#484848;font-family:Gill Sans MT;-inkscape-font-specification:Gill Sans MT Bold" id="path4175"/>
    </g>
    <g style="font-size:4px;font-style:normal;font-variant:normal;font-weight:bold;font-stretch:normal;text-align:center;line-height:125%;letter-spacing:0px;word-spacing:0px;text-anchor:middle;fill:#666666;fill-opacity:1;stroke:none;font-family:Hoefler Text;-inkscape-font-specification:Hoefler Text Bold" id="text4135">
      <path d="m 46.388672,118.70898 0.386719,8.18555 -1.681641,0 -0.275391,-5.53125 -3.035156,5.53125 -0.826172,0 -1.464844,-5.68945 -1.851562,5.68945 -1.751953,0 2.666015,-8.18555 1.910157,0 1.318359,5.1504 2.759766,-5.1504 1.845703,0" style="font-size:12px;font-style:italic;fill:#666666;font-family:Gill Sans MT;-inkscape-font-specification:Gill Sans MT Bold Italic" id="path4178"/>
      <path d="m 54.205078,118.70898 -0.193359,1.3711 -3.369141,0 -0.275391,1.92773 2.964844,0 -0.193359,1.3711 -2.964844,0 -0.298828,2.15039 4.248047,0 -0.19336,1.36523 -5.988281,0 1.154297,-8.18555 5.109375,0" style="font-size:12px;font-style:italic;fill:#666666;font-family:Gill Sans MT;-inkscape-font-specification:Gill Sans MT Bold Italic" id="path4180"/>
      <path d="m 62.4375,118.70898 -0.193359,1.3711 -2.660157,0 -0.960937,6.81445 -1.740235,0 0.960938,-6.81445 -2.595703,0 0.193359,-1.3711 6.996094,0" style="font-size:12px;font-style:italic;fill:#666666;font-family:Gill Sans MT;-inkscape-font-specification:Gill Sans MT Bold Italic" id="path4182"/>
      <path d="m 66.515625,118.60352 1.441406,8.29101 -1.787109,0 -0.251953,-1.78711 -2.542969,0 -0.796875,1.78711 -1.916016,0 4.007813,-8.29101 1.845703,0 m -2.636719,5.33789 1.892578,0 -0.433593,-3.6211 -1.458985,3.6211" style="font-size:12px;font-style:italic;fill:#666666;font-family:Gill Sans MT;-inkscape-font-specification:Gill Sans MT Bold Italic" id="path4184"/>
      <path d="m 72.539062,123.36719 -0.240234,1.6582 -3.744141,0 0.228516,-1.6582 3.755859,0" style="font-size:12px;font-style:italic;fill:#666666;font-family:Gill Sans MT;-inkscape-font-specification:Gill Sans MT Bold Italic" id="path4186"/>
      <path d="M 84.585937,118.70898 80.554687,127 l -0.708984,0 -1.318359,-5.0625 -2.759766,5.0625 -0.720703,0 -1.669922,-8.29102 1.646484,0 0.884766,4.81641 2.607422,-4.81641 0.849609,0 1.248047,4.81641 2.208985,-4.81641 1.763671,0" style="font-size:12px;font-style:italic;fill:#666666;font-family:Gill Sans MT;-inkscape-font-specification:Gill Sans MT Bold Italic" id="path4188"/>
      <path d="m 87.433594,118.70898 -1.154297,8.18555 -1.740235,0 1.154297,-8.18555 1.740235,0" style="font-size:12px;font-style:italic;fill:#666666;font-family:Gill Sans MT;-inkscape-font-specification:Gill Sans MT Bold Italic" id="path4190"/>
      <path d="m 96.082031,118.70898 -3.673828,3.69727 3.181641,4.48828 -2.015625,0 -3.087891,-4.3418 -0.609375,4.3418 -1.740234,0 1.154297,-8.18555 1.740234,0 -0.492188,3.49219 3.480469,-3.49219 2.0625,0" style="font-size:12px;font-style:italic;fill:#666666;font-family:Gill Sans MT;-inkscape-font-specification:Gill Sans MT Bold Italic" id="path4192"/>
      <path d="m 98.824219,118.70898 -1.154297,8.18555 -1.740235,0 1.154297,-8.18555 1.740235,0" style="font-size:12px;font-style:italic;fill:#666666;font-family:Gill Sans MT;-inkscape-font-specification:Gill Sans MT Bold Italic" id="path4194"/>
    </g>
  </g>
</svg>